<?xml version="1.0" standalone="no"?>
<!DOCTYPE svg PUBLIC "-//W3C//DTD SVG 20010904//EN"
 "http://www.w3.org/TR/2001/REC-SVG-20010904/DTD/svg10.dtd">
<svg version="1.0" xmlns="http://www.w3.org/2000/svg"
 width="900.000000pt" height="1020.000000pt" viewBox="0 0 900.000000 1020.000000"
 preserveAspectRatio="xMidYMid meet">
<metadata>
Created by potrace 1.10, written by Peter Selinger 2001-2011
</metadata>
<g transform="translate(0.000000,1020.000000) scale(0.100000,-0.100000)"
fill="#000000" stroke="none">
<path d="M3395 9191 c-61 -5 -127 -15 -148 -24 -20 -9 -64 -19 -97 -23 -33 -4
-65 -13 -71 -20 -7 -9 -33 -14 -73 -14 -51 0 -68 -5 -96 -25 -19 -14 -42 -25
-52 -25 -10 0 -27 -9 -38 -20 -11 -11 -31 -20 -44 -20 -18 0 -27 -9 -40 -45
-15 -39 -22 -45 -46 -45 -15 0 -30 -7 -33 -14 -3 -8 -22 -18 -41 -21 -19 -4
-44 -18 -57 -31 -12 -13 -32 -24 -43 -24 -12 0 -50 -27 -85 -60 -36 -33 -69
-60 -75 -60 -6 0 -22 -10 -36 -23 -14 -12 -54 -49 -90 -82 -36 -32 -159 -150
-273 -262 -114 -112 -215 -203 -224 -203 -22 0 -139 -117 -164 -164 -12 -23
-51 -73 -88 -111 -37 -39 -77 -91 -90 -115 -13 -25 -44 -66 -70 -91 -65 -65
-101 -110 -101 -129 0 -9 -20 -36 -45 -60 -28 -27 -45 -53 -45 -68 0 -14 -18
-41 -45 -69 -27 -27 -45 -54 -45 -68 0 -13 -7 -25 -15 -29 -8 -3 -15 -18 -15
-34 0 -17 -10 -37 -24 -51 -13 -13 -27 -38 -30 -56 -4 -18 -13 -36 -21 -39
-10 -4 -15 -20 -15 -50 0 -32 -8 -56 -25 -82 -19 -27 -25 -50 -25 -88 0 -34
-7 -61 -20 -81 -18 -27 -20 -47 -20 -213 0 -152 -3 -187 -16 -208 -12 -18 -19
-63 -24 -174 -7 -123 -12 -158 -29 -190 -17 -33 -21 -59 -21 -137 0 -75 -4
-100 -16 -114 -15 -17 -16 -85 -16 -695 0 -613 1 -679 16 -689 11 -8 16 -28
16 -61 0 -37 5 -54 20 -66 19 -17 23 -28 35 -101 3 -21 13 -41 21 -44 10 -4
14 -23 14 -71 0 -48 5 -71 17 -84 11 -13 20 -45 24 -89 4 -51 12 -76 28 -92
11 -13 21 -34 21 -48 0 -13 9 -32 20 -42 14 -12 20 -29 20 -58 0 -28 8 -51 25
-73 17 -23 25 -46 25 -73 0 -24 6 -46 15 -53 9 -7 15 -29 15 -55 0 -31 7 -49
24 -68 13 -14 27 -40 31 -57 4 -17 13 -34 21 -37 8 -3 14 -17 14 -33 0 -15 9
-35 20 -45 11 -10 25 -36 31 -57 5 -22 17 -42 25 -45 10 -4 14 -23 14 -70 0
-50 5 -71 20 -90 11 -14 20 -36 20 -48 0 -12 11 -32 25 -45 14 -13 25 -33 25
-45 0 -27 95 -125 122 -125 25 0 178 -152 178 -177 0 -25 96 -123 120 -123 10
0 72 -52 139 -116 121 -116 202 -184 219 -184 5 0 22 -11 38 -25 16 -14 42
-29 57 -32 16 -3 31 -12 34 -19 3 -8 16 -14 30 -14 14 0 38 -11 55 -25 16 -14
38 -25 49 -25 10 0 27 -9 36 -20 10 -11 29 -20 42 -20 14 0 34 -8 45 -18 12
-10 37 -25 56 -33 19 -7 45 -26 58 -41 16 -19 36 -29 70 -34 26 -4 63 -17 82
-30 27 -19 48 -24 96 -24 43 0 65 -5 74 -15 8 -10 30 -15 65 -15 35 0 66 -7
96 -23 24 -13 64 -26 88 -30 25 -3 48 -12 53 -21 5 -9 21 -16 35 -16 15 0 37
-10 50 -21 13 -13 44 -25 75 -30 29 -5 58 -15 64 -24 6 -8 21 -15 34 -15 12 0
33 -8 46 -19 13 -10 44 -22 68 -25 25 -4 56 -16 69 -27 18 -14 41 -19 83 -19
37 0 63 -5 74 -15 10 -9 47 -17 96 -21 43 -4 106 -16 139 -27 55 -18 86 -20
355 -20 269 0 302 1 370 20 49 14 122 24 210 28 101 5 137 10 143 21 6 11 36
14 135 14 109 0 131 3 157 20 16 11 49 22 72 26 24 3 54 15 67 25 14 11 40 19
64 19 25 0 47 7 62 20 14 12 37 20 60 20 23 0 48 9 70 25 24 18 47 25 77 25
29 0 46 5 49 14 3 8 20 18 37 22 18 3 45 17 60 30 16 13 39 24 52 24 12 0 25
7 29 15 3 8 16 15 29 15 13 0 41 14 62 30 21 17 44 30 52 30 8 0 44 27 80 60
36 33 74 60 83 60 9 0 43 25 75 55 31 30 77 64 102 75 50 22 82 55 83 85 0 11
24 45 54 77 29 31 63 76 75 100 12 23 55 78 96 120 41 43 75 84 75 92 0 9 26
44 58 78 32 35 65 79 72 98 8 19 35 56 61 82 25 25 57 67 69 93 12 25 33 53
46 62 13 8 29 33 35 54 7 21 20 46 31 55 10 10 18 28 18 41 0 12 9 32 20 43
13 13 20 33 20 56 0 38 15 74 36 87 9 5 14 26 14 57 0 33 5 52 15 57 8 5 18
30 21 58 4 29 17 64 30 82 16 21 24 45 24 71 0 23 6 45 15 52 11 9 15 33 15
85 0 53 6 85 22 121 20 45 22 68 26 296 4 257 -6 392 -33 431 -10 15 -15 46
-15 103 0 64 -3 83 -15 88 -11 4 -15 21 -15 65 0 43 -7 72 -25 108 -21 41 -25
66 -30 173 -4 95 -9 128 -20 136 -12 9 -15 36 -15 132 0 105 -3 127 -21 162
-16 31 -24 69 -29 152 -6 87 -11 113 -24 120 -12 7 -16 25 -16 75 0 48 -5 72
-16 85 -10 10 -21 42 -25 70 -6 36 -15 58 -29 67 -13 9 -20 24 -20 45 0 19 -8
38 -20 49 -14 12 -20 29 -20 58 0 29 -7 50 -25 71 -18 22 -25 41 -25 74 0 30
-5 46 -15 50 -10 4 -15 20 -15 49 0 28 -7 51 -22 70 -12 15 -25 51 -29 79 -5
28 -15 56 -24 62 -9 7 -15 27 -15 52 0 27 -8 53 -25 78 -14 20 -25 51 -25 69
0 18 -9 44 -20 58 -11 14 -20 36 -20 50 0 13 -9 32 -20 42 -13 12 -20 31 -20
56 0 25 -8 47 -25 67 -14 17 -25 41 -25 55 0 15 -6 30 -14 34 -7 4 -21 26 -31
48 -10 22 -36 58 -58 79 -22 21 -49 61 -62 87 -12 27 -34 58 -48 69 -14 11
-33 40 -42 64 -10 25 -23 47 -31 50 -8 3 -14 18 -14 34 0 20 -12 40 -41 67
-22 22 -47 55 -54 73 -19 44 -329 352 -380 377 -21 11 -50 32 -62 47 -13 14
-44 36 -69 48 -24 12 -84 60 -132 106 -48 46 -106 94 -130 105 -24 12 -49 30
-55 41 -14 23 -58 43 -115 53 -22 3 -43 13 -46 21 -3 8 -18 14 -34 14 -16 0
-36 8 -46 18 -9 11 -34 24 -55 31 -21 6 -42 18 -45 26 -3 8 -17 15 -31 15 -14
0 -38 9 -53 19 -19 13 -51 21 -106 24 -58 4 -87 11 -107 26 -19 14 -43 21 -73
21 -27 0 -46 5 -49 13 -3 7 -22 18 -44 25 -21 6 -54 27 -73 47 -19 19 -44 35
-56 35 -12 0 -40 19 -65 45 -30 31 -52 45 -70 45 -15 0 -33 7 -40 16 -8 9 -32
25 -55 35 -23 9 -45 22 -48 28 -4 6 -16 11 -28 11 -11 0 -31 9 -45 20 -14 11
-33 20 -41 20 -8 0 -30 11 -48 25 -24 18 -45 25 -77 25 -29 0 -47 5 -50 14 -3
8 -31 16 -73 20 -38 4 -73 11 -79 15 -37 29 -396 47 -620 32z m340 -187 c9
-13 37 -18 116 -24 103 -7 151 -19 164 -39 3 -6 37 -11 75 -11 48 0 69 -4 73
-14 3 -7 20 -16 37 -20 18 -3 45 -17 62 -31 16 -14 40 -25 53 -25 12 0 25 -7
29 -15 3 -8 16 -15 30 -15 13 0 38 -11 54 -25 17 -14 37 -25 46 -25 9 0 25 -9
36 -20 11 -11 28 -20 38 -20 10 0 48 -27 85 -60 38 -33 74 -60 81 -60 7 0 32
-13 54 -30 23 -16 50 -30 61 -30 10 0 24 -6 30 -14 7 -8 43 -15 95 -19 56 -4
95 -12 119 -26 19 -11 56 -23 82 -26 25 -4 49 -14 52 -21 3 -10 23 -14 59 -14
39 0 56 -4 60 -15 3 -7 25 -21 49 -31 24 -9 46 -22 49 -30 3 -8 20 -14 40 -14
24 0 38 -6 45 -19 6 -10 27 -26 48 -34 21 -9 78 -54 126 -101 49 -47 107 -94
130 -105 23 -11 54 -34 69 -49 15 -16 42 -35 60 -42 18 -8 59 -38 92 -67 32
-30 71 -56 86 -60 22 -4 33 -15 44 -43 8 -21 52 -77 98 -125 46 -48 92 -103
103 -123 11 -21 28 -48 38 -62 9 -13 17 -32 17 -41 0 -10 18 -36 40 -59 22
-23 40 -50 40 -61 0 -11 20 -42 45 -68 25 -26 45 -57 45 -68 0 -11 20 -41 45
-66 25 -26 45 -56 45 -67 0 -11 9 -29 20 -40 11 -11 20 -30 20 -43 0 -13 11
-34 25 -47 14 -13 25 -35 25 -48 0 -14 7 -30 16 -36 8 -7 18 -32 21 -56 3 -25
16 -59 29 -77 17 -23 24 -45 24 -78 0 -31 5 -47 15 -51 10 -4 15 -20 15 -51 0
-34 6 -53 25 -75 17 -20 25 -42 25 -67 0 -23 8 -48 20 -64 15 -19 20 -40 20
-91 0 -50 4 -68 15 -72 8 -3 20 -24 26 -45 7 -21 20 -46 31 -55 10 -10 18 -29
18 -43 0 -15 9 -34 20 -44 13 -11 20 -29 20 -53 0 -35 26 -94 42 -94 4 0 8
-21 8 -47 0 -28 6 -53 15 -63 11 -13 17 -47 20 -119 4 -79 10 -111 27 -144 18
-34 22 -64 26 -162 3 -79 9 -128 18 -142 10 -16 14 -56 14 -135 0 -101 3 -118
25 -160 17 -31 25 -63 25 -95 0 -30 7 -60 20 -81 15 -25 20 -50 20 -109 0 -54
4 -81 15 -93 39 -44 40 -766 1 -809 -11 -12 -16 -38 -16 -83 0 -48 -4 -67 -14
-71 -8 -3 -18 -23 -21 -44 -12 -73 -16 -84 -35 -101 -11 -9 -20 -28 -20 -43 0
-15 -7 -32 -15 -39 -9 -7 -15 -29 -15 -50 0 -27 -8 -48 -26 -70 -19 -22 -27
-43 -28 -76 -1 -31 -7 -50 -19 -59 -9 -7 -17 -21 -17 -31 0 -25 -28 -67 -63
-94 -16 -12 -27 -31 -27 -45 0 -15 -20 -44 -58 -82 -32 -32 -64 -74 -72 -93
-8 -19 -39 -61 -68 -93 -30 -32 -59 -72 -66 -88 -7 -17 -44 -62 -81 -101 -38
-38 -78 -91 -90 -117 -12 -26 -34 -55 -49 -64 -14 -10 -26 -22 -26 -28 0 -21
-35 -84 -55 -101 -11 -9 -31 -19 -45 -21 -14 -3 -50 -30 -80 -59 -73 -71 -134
-118 -153 -118 -8 0 -27 -14 -41 -30 -14 -17 -45 -39 -69 -49 -25 -11 -48 -24
-51 -30 -4 -6 -21 -11 -37 -11 -17 0 -32 -6 -35 -15 -3 -7 -25 -21 -49 -31
-24 -9 -46 -22 -49 -30 -3 -8 -19 -14 -38 -14 -21 0 -40 -7 -51 -20 -11 -13
-29 -20 -51 -20 -19 0 -49 -11 -70 -25 -24 -16 -51 -25 -76 -25 -22 0 -45 -7
-54 -16 -9 -8 -37 -19 -63 -23 -27 -4 -66 -17 -88 -29 -33 -18 -56 -22 -136
-22 -69 0 -100 -4 -108 -13 -8 -10 -57 -16 -182 -20 -95 -4 -177 -11 -183 -16
-23 -20 -177 -31 -414 -31 -250 1 -384 11 -408 31 -7 6 -42 13 -76 16 -35 3
-70 11 -78 18 -8 7 -45 15 -81 17 -48 3 -73 10 -94 26 -17 14 -42 22 -65 22
-22 0 -48 8 -63 20 -14 11 -33 20 -42 20 -9 0 -31 11 -49 25 -18 14 -39 25
-45 25 -7 0 -24 9 -38 20 -16 12 -41 20 -65 20 -25 0 -50 8 -65 20 -14 11 -38
20 -53 20 -15 0 -48 11 -74 25 -39 21 -61 25 -125 25 -55 0 -82 4 -90 14 -6 8
-33 17 -59 21 -26 4 -61 18 -79 31 -17 13 -39 24 -48 24 -9 0 -37 18 -62 39
-24 22 -58 43 -74 46 -17 4 -33 13 -36 21 -3 8 -17 14 -32 14 -16 0 -37 10
-51 25 -13 14 -33 25 -45 25 -12 0 -30 9 -40 20 -10 11 -31 20 -47 20 -15 0
-28 4 -28 10 0 5 -23 21 -50 35 -28 14 -93 66 -145 116 -52 49 -110 96 -128
104 -41 17 -247 223 -247 247 0 27 -56 85 -88 91 -34 7 -122 92 -122 118 0 10
-14 34 -30 52 -17 19 -30 46 -30 60 0 14 -7 30 -16 35 -12 7 -17 26 -18 74 -2
54 -7 72 -29 101 -15 20 -27 44 -27 55 0 11 -7 25 -15 32 -8 7 -15 22 -15 34
0 13 -19 41 -45 66 -41 40 -45 48 -45 92 0 33 -5 50 -14 54 -17 6 -26 40 -31
108 -3 30 -12 61 -25 78 -13 18 -20 43 -20 72 0 29 -5 46 -14 49 -8 3 -18 23
-21 44 -12 73 -16 84 -35 101 -15 12 -20 29 -20 64 0 32 -5 50 -15 56 -11 6
-16 27 -18 73 -2 51 -8 72 -30 104 -19 27 -27 52 -27 81 0 25 -6 47 -15 54
-13 11 -15 101 -15 704 0 570 2 695 14 711 9 13 15 61 18 140 3 96 9 130 27
170 17 39 23 75 27 170 3 81 9 124 19 135 10 11 14 62 17 205 3 176 5 193 26
228 12 21 22 53 22 72 0 22 8 43 20 55 11 11 20 30 20 42 0 12 9 32 21 44 11
12 22 28 23 35 6 33 18 58 31 63 9 3 15 18 15 35 0 17 6 34 14 38 7 4 19 25
26 46 6 21 27 52 45 68 18 17 35 43 38 58 3 16 24 46 46 67 23 21 41 44 41 52
0 19 77 116 144 182 31 30 66 73 77 95 27 52 179 208 248 252 30 20 138 117
240 217 161 158 226 220 350 334 14 12 34 25 45 28 12 4 40 26 63 50 24 24 47
44 52 44 5 0 14 7 21 15 8 9 29 15 56 15 29 0 46 5 52 16 7 12 37 18 133 25
68 5 137 12 152 15 37 9 57 40 57 89 0 62 9 68 83 66 39 -1 68 3 72 9 14 23
64 32 210 40 120 7 152 12 160 24 13 21 74 21 90 0z m-732 -51 c-13 -37 -36
-53 -75 -53 -21 0 -38 4 -38 9 0 19 63 59 97 60 17 1 21 -3 16 -16z"/>
<path d="M3210 5800 c0 -5 -21 -19 -47 -30 -61 -27 -83 -67 -83 -153 0 -50 5
-70 25 -99 21 -31 32 -37 75 -43 87 -12 144 2 187 45 21 21 47 60 57 86 l19
48 -31 26 c-21 17 -32 35 -32 53 0 32 -25 47 -75 47 -22 0 -38 6 -41 15 -7 16
-54 21 -54 5z"/>
<path d="M2809 4591 c-49 -22 -67 -38 -95 -83 -28 -44 -33 -118 -9 -138 8 -7
15 -18 15 -24 0 -29 102 -96 145 -96 12 0 32 11 44 24 12 13 36 26 52 30 22 4
29 11 29 29 0 13 13 36 30 52 17 16 30 36 30 45 0 9 -13 29 -30 45 -17 16 -30
39 -30 52 0 18 -7 25 -30 30 -17 3 -40 16 -53 29 -26 28 -48 29 -98 5z"/>
<path d="M6288 4412 c-64 -39 -55 -160 17 -238 37 -39 46 -44 86 -44 37 0 51
7 90 39 29 25 50 54 59 80 12 37 11 45 -6 79 -11 21 -41 51 -69 70 -40 26 -59
32 -100 31 -27 0 -62 -8 -77 -17z"/>
<path d="M5020 3124 c-34 -12 -49 -24 -62 -50 -10 -19 -18 -41 -18 -48 0 -8
-10 -20 -22 -28 -17 -11 -20 -20 -14 -42 9 -38 88 -112 127 -120 41 -8 99 -7
123 3 28 11 55 87 55 156 1 71 -4 81 -44 91 -17 4 -43 18 -58 31 -33 27 -29
26 -87 7z"/>
<path d="M6016 2838 c-63 -52 -91 -141 -64 -205 19 -44 39 -63 68 -63 15 0 35
-9 45 -20 10 -11 24 -20 31 -20 7 0 18 9 24 20 7 13 21 20 39 20 17 0 37 10
52 26 21 23 24 35 23 100 l0 75 -54 49 c-66 62 -104 66 -164 18z"/>
</g>
</svg>
