<?xml version="1.0" standalone="no"?>
<!DOCTYPE svg PUBLIC "-//W3C//DTD SVG 20010904//EN"
 "http://www.w3.org/TR/2001/REC-SVG-20010904/DTD/svg10.dtd">
<svg version="1.0" xmlns="http://www.w3.org/2000/svg"
 width="900.000000pt" height="108.000000pt" viewBox="0 0 900.000000 108.000000"
 preserveAspectRatio="xMidYMid meet">
<metadata>
Created by potrace 1.10, written by Peter Selinger 2001-2011
</metadata>
<g transform="translate(0.000000,108.000000) scale(0.100000,-0.100000)"
fill="#000000" stroke="none">
<path d="M6146 883 c-47 -47 -52 -72 -32 -144 9 -32 16 -65 16 -73 0 -8 -38
-58 -85 -112 -47 -54 -85 -102 -85 -106 0 -12 -48 -9 -70 4 -31 20 -46 -2 -33
-46 8 -27 8 -39 -3 -55 -12 -17 -12 -22 2 -35 18 -19 26 -20 41 -5 8 8 23 2
53 -20 35 -25 53 -31 95 -31 35 0 57 5 65 15 9 11 33 15 86 15 40 0 83 4 96
10 13 5 42 14 64 20 23 6 55 24 72 41 l31 31 25 -49 c36 -72 70 -86 156 -64
36 9 83 27 105 41 22 14 43 26 48 28 4 2 25 -10 46 -27 44 -35 103 -42 132
-15 20 18 20 18 176 12 106 -5 115 -3 147 18 l34 23 26 -20 c22 -17 43 -21
134 -24 94 -2 111 0 142 18 19 12 37 24 40 27 3 4 15 12 27 18 22 12 33 1 33
-37 0 -29 37 -55 77 -54 48 1 94 28 122 71 l24 36 15 -22 c18 -28 62 -29 86
-3 30 33 0 81 -31 50 -20 -20 -43 30 -43 93 0 50 -4 61 -27 83 -32 29 -42 30
-69 10 -10 -8 -29 -15 -40 -15 -26 0 -101 -79 -116 -121 -5 -16 -16 -29 -24
-29 -8 0 -39 -19 -69 -41 -30 -23 -61 -39 -68 -36 -9 3 -16 30 -21 74 -11 123
-30 201 -53 225 -22 21 -23 21 -43 3 -15 -14 -20 -30 -20 -72 0 -74 -32 -126
-114 -186 -82 -61 -96 -61 -96 -1 0 25 -5 54 -10 64 -6 11 -13 47 -16 82 -8
81 -30 120 -64 116 -23 -3 -26 -8 -31 -63 -13 -132 -125 -271 -203 -251 -37 9
-44 48 -17 101 27 55 27 71 -4 91 -20 13 -31 15 -49 6 -20 -9 -25 -21 -31 -69
-3 -32 -12 -65 -18 -74 -7 -9 -43 -31 -81 -48 -72 -34 -98 -35 -143 -5 -45 29
-19 132 47 188 l32 26 28 -30 c31 -34 39 -36 64 -17 25 18 17 65 -14 89 -36
26 -102 27 -137 2 -34 -25 -93 -109 -99 -144 -4 -19 -17 -30 -52 -44 -26 -11
-54 -25 -62 -31 -8 -7 -26 -15 -40 -18 -14 -3 -44 -12 -67 -18 -55 -17 -66 -7
-52 46 8 29 8 65 0 136 -12 101 -10 115 29 174 23 35 24 38 39 84 18 55 14 78
-18 100 -41 30 -62 26 -105 -16z m59 -55 c7 -18 -9 -73 -20 -72 -19 3 -26 30
-16 57 11 28 28 36 36 15z m-57 -360 c-3 -54 -8 -72 -28 -93 -13 -14 -31 -25
-41 -25 -17 0 -89 37 -89 46 0 2 22 28 49 58 28 30 57 66 67 81 13 21 19 23
31 13 11 -9 14 -29 11 -80z m1728 34 c6 -13 17 -29 23 -35 17 -17 13 -35 -16
-74 -46 -60 -95 -62 -108 -4 -6 30 -4 35 35 104 25 42 48 45 66 9z m-718 -68
c-3 -47 -4 -49 -33 -49 -28 0 -30 3 -28 33 1 37 41 88 55 74 5 -5 8 -31 6 -58z
m336 21 c9 -45 -7 -75 -39 -75 -21 0 -25 5 -25 31 0 32 36 93 50 84 4 -3 11
-21 14 -40z"/>
<path d="M390 889 c-67 -8 -167 -44 -197 -72 -28 -25 -31 -67 -5 -67 9 0 32 9
50 20 18 11 37 20 42 20 15 0 12 -53 -4 -75 -7 -11 -22 -47 -32 -80 -21 -73
-35 -85 -92 -85 -69 0 -82 -12 -82 -75 0 -52 2 -56 38 -79 35 -22 38 -26 34
-65 -4 -40 -3 -41 26 -41 27 0 32 5 44 43 12 39 15 42 54 45 29 2 57 -6 104
-29 100 -50 159 -44 263 26 24 15 30 16 38 4 5 -8 9 -24 9 -36 0 -33 47 -65
84 -58 45 9 95 37 101 56 3 9 14 24 24 34 18 16 20 16 31 -4 13 -26 58 -28 76
-3 29 37 8 82 -23 51 -18 -18 -43 30 -43 81 0 62 -7 82 -37 104 -25 18 -28 19
-55 3 -17 -9 -38 -17 -47 -17 -22 0 -82 -59 -106 -103 -17 -32 -26 -38 -147
-91 -49 -22 -110 -21 -139 3 l-24 19 72 74 c88 89 98 101 123 157 25 55 26
116 1 167 -35 71 -72 87 -181 73z m113 -99 c14 -55 0 -114 -41 -168 -68 -90
-127 -152 -144 -152 -25 0 -41 36 -33 77 6 33 13 52 57 149 10 22 18 45 18 50
0 5 5 26 11 47 l10 38 57 -3 c54 -3 56 -4 65 -38z m323 -288 c6 -13 17 -29 23
-35 18 -18 12 -40 -22 -79 -40 -48 -75 -53 -96 -16 -13 23 -14 32 -2 65 19 52
52 94 70 91 9 -2 21 -14 27 -26z m-641 -32 c0 -20 -6 -26 -27 -28 -24 -3 -28
0 -28 21 0 30 9 39 35 35 14 -2 20 -10 20 -28z"/>
<path d="M1610 862 c-27 -9 -49 -34 -70 -81 -12 -25 -28 -59 -35 -74 -8 -16
-15 -36 -15 -46 0 -17 -33 -117 -49 -149 -5 -9 -16 -46 -24 -81 -14 -57 -14
-68 -1 -93 24 -46 58 -34 69 25 4 20 12 40 17 43 5 3 35 -14 66 -39 87 -68 97
-71 157 -58 79 18 146 90 99 108 -8 3 -25 0 -37 -6 -101 -55 -94 -53 -136 -32
-51 26 -55 42 -20 76 40 37 62 91 49 116 -8 14 -22 19 -55 19 -25 0 -45 3 -45
6 0 4 21 49 46 101 49 103 55 150 19 163 -11 4 -27 5 -35 2z m-27 -366 c8 -19
-16 -38 -37 -30 -16 6 -21 25 -9 37 12 12 41 7 46 -7z"/>
<path d="M3006 845 c-11 -8 -29 -15 -40 -15 -64 -1 -91 -82 -30 -88 19 -2 36
3 44 12 14 18 60 22 60 6 0 -10 -11 -33 -32 -70 -4 -8 -11 -22 -14 -30 -3 -8
-11 -28 -19 -45 -7 -16 -16 -38 -19 -47 -4 -13 -13 -16 -39 -11 -41 6 -112
-26 -119 -55 -3 -10 2 -29 12 -42 15 -20 21 -22 48 -12 17 6 33 8 36 5 12 -12
6 -47 -11 -65 -9 -10 -17 -36 -17 -61 -1 -40 0 -42 28 -42 27 0 31 5 51 64 13
35 31 68 41 74 10 6 43 11 73 13 38 2 71 11 101 28 25 14 52 29 60 33 35 16
64 46 110 117 63 94 66 132 17 179 -57 55 -95 67 -215 67 -78 -1 -112 -5 -126
-15z m259 -67 c47 -21 44 -64 -11 -136 -64 -84 -207 -168 -240 -141 -11 9 -7
23 22 76 36 67 61 129 70 173 8 40 32 52 87 45 26 -3 59 -11 72 -17z"/>
<path d="M6893 705 c-7 -19 24 -55 47 -55 23 0 54 36 47 55 -4 10 -20 15 -47
15 -27 0 -43 -5 -47 -15z"/>
<path d="M4537 681 c-9 -16 -17 -45 -17 -64 0 -20 -7 -48 -15 -64 -48 -95 -58
-124 -46 -149 10 -24 12 -24 33 -10 12 9 31 35 43 58 22 45 32 53 54 39 10 -7
15 -31 15 -86 1 -89 6 -95 86 -95 46 0 64 6 105 33 58 37 74 77 31 77 -14 0
-45 -13 -69 -30 -25 -16 -52 -30 -61 -30 -35 0 -39 83 -6 152 20 43 7 60 -42
56 l-43 -3 4 73 3 72 -29 0 c-21 0 -33 -8 -46 -29z"/>
<path d="M8186 688 c-7 -13 -19 -48 -26 -78 -6 -30 -17 -68 -25 -85 -45 -103
-46 -107 -34 -121 6 -8 17 -14 23 -14 19 0 56 44 56 66 0 20 17 44 31 44 4 0
14 -7 23 -15 11 -11 13 -29 9 -70 -4 -42 -2 -60 12 -81 16 -25 21 -26 80 -22
44 3 70 10 85 23 19 17 21 17 33 1 10 -13 33 -17 129 -20 l116 -3 61 38 c49
31 61 44 61 64 0 40 -26 41 -66 2 -41 -40 -81 -63 -91 -54 -3 4 -6 21 -5 37 0
17 -6 49 -14 72 -8 22 -14 59 -14 82 -1 60 -29 110 -63 114 -20 3 -27 -1 -28
-15 -4 -98 -49 -207 -101 -245 -73 -52 -96 -58 -121 -30 -21 23 -21 48 -2 85
34 67 27 129 -13 108 -54 -29 -74 -7 -51 58 16 45 5 81 -26 81 -15 0 -30 -9
-39 -22z m408 -214 c19 -49 -4 -100 -41 -92 -35 7 -15 108 22 108 7 0 16 -7
19 -16z"/>
<path d="M1183 633 c-38 -7 -109 -98 -128 -165 -15 -54 -15 -63 0 -107 28 -87
69 -106 167 -82 87 22 143 58 143 91 0 21 -4 25 -25 22 -14 -1 -36 -11 -50
-21 -47 -34 -94 -44 -134 -27 -47 20 -62 56 -41 99 8 16 15 35 15 42 0 15 63
75 79 75 7 0 22 -11 33 -25 24 -30 53 -32 68 -4 32 58 -42 117 -127 102z"/>
<path d="M4213 622 c-47 -5 -79 -52 -88 -132 -8 -75 -12 -81 -68 -113 -57 -33
-90 -39 -113 -23 -18 14 -18 15 6 25 40 16 59 35 75 74 18 43 20 123 4 133
-25 15 -72 5 -100 -22 l-29 -28 -20 22 c-26 27 -32 27 -56 0 -28 -32 -46 -76
-53 -128 -5 -41 -9 -45 -36 -48 -16 -2 -37 -10 -45 -17 -8 -7 -33 -15 -55 -17
-37 -3 -40 -1 -43 24 -2 15 4 38 12 51 25 38 32 112 12 142 -35 53 -120 25
-203 -67 -64 -71 -84 -156 -45 -191 24 -22 114 -23 132 -2 16 19 54 19 70 0
13 -16 100 -22 100 -7 0 8 14 16 63 40 18 9 4 -45 -23 -90 -35 -57 -36 -68
-11 -99 16 -19 23 -22 37 -13 10 6 21 17 25 25 21 39 39 83 39 95 0 24 35 75
55 80 11 2 43 -6 72 -20 50 -25 53 -25 100 -9 26 9 55 22 64 29 24 21 43 17
66 -14 11 -15 37 -33 58 -39 70 -22 205 20 220 68 14 42 -21 51 -70 19 -39
-25 -134 -38 -146 -19 -5 8 -6 23 -2 34 5 17 38 70 53 85 16 16 40 76 40 100
0 42 -31 59 -97 52z m-234 -117 c5 -26 -26 -81 -56 -101 -23 -14 -26 -14 -43
1 -18 16 -18 18 2 51 23 39 66 76 82 71 6 -2 13 -12 15 -22z m243 -5 c-3 -28
-37 -68 -48 -57 -4 4 -2 25 5 48 9 29 17 39 29 37 11 -3 16 -12 14 -28z m-670
-2 c4 -12 -41 -107 -63 -134 -16 -19 -68 -18 -76 2 -13 34 74 144 113 144 12
0 24 -5 26 -12z"/>
<path d="M2125 521 c-3 -7 0 -22 9 -35 14 -22 23 -24 133 -28 129 -5 166 2
161 30 -3 14 -19 18 -103 23 -55 4 -121 10 -146 14 -32 5 -49 4 -54 -4z"/>
<path d="M5169 525 c-4 -3 -4 -18 0 -33 l7 -27 125 -6 c128 -6 162 0 157 29
-3 14 -20 18 -93 23 -50 3 -112 9 -140 13 -27 4 -53 5 -56 1z"/>
</g>
</svg>
