<?xml version="1.0" standalone="no"?>
<!DOCTYPE svg PUBLIC "-//W3C//DTD SVG 20010904//EN"
 "http://www.w3.org/TR/2001/REC-SVG-20010904/DTD/svg10.dtd">
<svg version="1.0" xmlns="http://www.w3.org/2000/svg"
 width="900.000000pt" height="1200.000000pt" viewBox="0 0 900.000000 1200.000000"
 preserveAspectRatio="xMidYMid meet">
<metadata>
Created by potrace 1.10, written by Peter Selinger 2001-2011
</metadata>
<g transform="translate(0.000000,1200.000000) scale(0.100000,-0.100000)"
fill="#000000" stroke="none">
<path d="M4706 11598 c-36 -32 -37 -35 -41 -111 -3 -69 -6 -82 -29 -106 -21
-21 -26 -37 -26 -75 0 -35 -6 -56 -25 -80 -17 -23 -25 -46 -25 -73 0 -25 -8
-50 -20 -66 -16 -20 -20 -40 -20 -101 0 -61 -6 -89 -27 -139 l-26 -62 -4 -325
c-3 -239 -8 -330 -17 -345 -19 -30 -26 -113 -36 -418 -7 -225 -11 -282 -23
-295 -12 -13 -16 -53 -19 -182 -3 -158 -4 -167 -31 -215 -25 -46 -27 -59 -27
-159 0 -88 -3 -113 -17 -128 -12 -14 -18 -49 -24 -157 -7 -145 -13 -176 -34
-201 -10 -11 -14 -71 -17 -230 l-3 -215 -27 -40 c-21 -29 -28 -52 -28 -87 0
-32 -5 -50 -15 -56 -12 -6 -18 -35 -24 -113 -6 -75 -15 -116 -30 -144 -20 -38
-21 -53 -21 -351 0 -305 -1 -313 -24 -375 -19 -50 -24 -84 -24 -151 0 -92 -4
-108 -28 -108 -19 0 -34 41 -34 91 0 26 -7 46 -20 59 -11 11 -20 33 -20 51 0
21 -10 40 -31 61 -16 17 -28 37 -25 44 3 7 -5 25 -16 40 -14 17 -23 46 -26 80
-3 39 -11 59 -28 75 -13 12 -24 33 -24 47 0 13 -11 37 -25 54 -18 21 -25 41
-25 72 0 28 -7 52 -20 69 -11 14 -20 35 -20 47 0 12 -13 35 -30 50 -19 18 -30
38 -30 56 0 15 -9 38 -21 50 -13 14 -23 43 -28 79 -5 37 -14 61 -24 67 -13 7
-17 23 -17 63 0 46 -5 60 -30 88 -25 28 -30 43 -30 84 0 36 -5 53 -20 66 -11
9 -20 26 -20 36 0 11 -11 33 -25 49 -19 23 -25 41 -25 80 0 42 -5 55 -30 82
-25 27 -30 40 -30 81 0 36 -5 54 -20 69 -14 14 -20 33 -20 65 0 36 -5 51 -25
69 -15 14 -25 34 -25 51 0 15 -11 40 -25 57 -14 16 -25 35 -26 41 -3 68 -8 91
-22 99 -9 4 -19 25 -23 45 -4 21 -18 49 -30 62 -18 20 -24 37 -24 73 0 36 -6
53 -25 74 -14 15 -25 38 -25 50 0 13 -9 33 -20 44 -14 14 -20 33 -20 68 0 41
-5 53 -30 78 -20 20 -30 39 -30 61 0 22 -6 36 -20 43 -10 6 -22 26 -26 44 -3
19 -15 42 -25 52 -14 12 -19 31 -19 68 -1 42 -6 57 -30 86 -24 27 -30 44 -30
79 0 27 -6 51 -17 63 -9 10 -20 44 -24 76 -5 39 -14 62 -28 74 -16 12 -21 28
-21 68 0 44 -5 58 -30 87 -24 27 -30 43 -30 80 0 42 -4 51 -45 90 -34 32 -45
50 -45 73 0 20 -8 34 -24 45 -15 10 -26 29 -30 54 -3 21 -12 41 -20 44 -8 3
-17 21 -21 39 -4 18 -18 47 -31 65 -22 29 -24 41 -24 152 0 85 -4 122 -13 128
-22 14 -37 52 -37 92 0 22 -8 48 -19 62 -15 20 -19 48 -24 154 -8 194 -27 234
-115 243 -66 6 -90 -8 -94 -56 -3 -35 -5 -37 -39 -40 -77 -6 -99 -77 -99 -311
0 -156 10 -219 34 -237 11 -8 16 -28 16 -66 0 -45 4 -59 25 -78 14 -13 25 -34
25 -46 0 -13 9 -32 20 -42 11 -11 22 -33 25 -50 2 -17 15 -44 29 -59 23 -25
26 -36 26 -106 0 -57 4 -79 14 -83 18 -7 33 -46 39 -103 3 -26 12 -48 21 -53
11 -6 16 -24 16 -57 0 -39 6 -56 30 -86 27 -34 30 -45 30 -110 0 -58 4 -75 19
-89 12 -11 20 -35 23 -67 3 -29 14 -62 27 -79 17 -23 21 -43 21 -99 0 -38 5
-73 10 -76 30 -18 50 -86 50 -166 0 -66 4 -86 20 -106 13 -16 20 -41 20 -67 0
-29 8 -53 25 -76 22 -30 25 -43 25 -126 0 -60 4 -97 13 -106 28 -31 38 -62 42
-131 3 -51 8 -75 20 -83 12 -9 19 -36 24 -93 5 -60 12 -88 29 -110 17 -24 22
-44 22 -96 0 -52 5 -72 22 -95 17 -23 23 -51 29 -131 5 -68 13 -107 23 -118
12 -13 16 -40 16 -107 1 -105 11 -157 39 -195 17 -22 21 -43 21 -98 0 -46 5
-74 14 -83 22 -23 28 -53 35 -199 6 -108 12 -143 24 -157 13 -14 17 -37 17
-88 0 -63 3 -73 30 -104 24 -29 29 -44 30 -86 0 -37 5 -56 19 -68 14 -13 20
-35 23 -92 4 -56 11 -83 27 -104 18 -25 21 -43 21 -117 0 -81 2 -92 30 -133
25 -38 30 -55 30 -109 0 -46 5 -70 17 -83 12 -13 19 -46 24 -119 5 -80 11
-107 28 -129 18 -25 21 -43 21 -120 0 -82 3 -95 25 -124 17 -22 27 -50 29 -80
2 -27 11 -55 21 -67 13 -14 20 -42 24 -99 5 -63 11 -83 29 -102 12 -14 22 -37
22 -52 0 -18 9 -35 24 -47 13 -10 27 -34 30 -52 4 -21 22 -49 51 -76 76 -73
59 -118 -48 -128 -40 -4 -56 -11 -78 -36 -16 -17 -29 -41 -29 -53 0 -12 -9
-33 -21 -48 -15 -19 -21 -44 -24 -89 -3 -66 -12 -94 -39 -117 -11 -8 -16 -30
-16 -70 0 -47 -4 -60 -20 -71 -15 -10 -23 -31 -30 -78 -6 -41 -15 -68 -24 -73
-9 -5 -16 -21 -16 -35 0 -14 -13 -41 -30 -60 -28 -31 -30 -40 -30 -108 0 -41
-5 -77 -11 -80 -19 -12 -31 -59 -38 -154 -6 -71 -12 -96 -24 -103 -13 -7 -17
-23 -17 -61 0 -44 -5 -58 -30 -85 -26 -28 -30 -41 -30 -87 0 -39 -4 -56 -16
-63 -11 -6 -18 -35 -25 -113 -6 -78 -13 -110 -29 -131 -15 -21 -20 -43 -20
-94 0 -57 -4 -72 -26 -102 -23 -30 -27 -44 -26 -100 1 -75 -10 -102 -42 -102
-28 0 -48 15 -149 114 -42 42 -84 76 -92 76 -21 0 -74 34 -92 59 -20 30 -55
43 -136 51 -40 4 -75 14 -85 24 -25 22 -177 23 -189 2 -5 -9 -36 -19 -73 -25
-46 -7 -69 -16 -79 -31 -7 -11 -22 -20 -33 -20 -32 0 -149 -98 -190 -159 -10
-14 -18 -34 -18 -44 0 -11 -13 -32 -30 -47 -19 -18 -30 -38 -30 -55 0 -15 -7
-33 -16 -40 -10 -7 -20 -35 -25 -70 -5 -36 -15 -65 -28 -79 -17 -18 -21 -35
-21 -89 0 -48 -6 -78 -21 -106 -48 -92 -48 -750 1 -842 16 -32 20 -58 20 -134
0 -68 4 -96 14 -102 22 -13 36 -49 36 -92 0 -29 6 -46 20 -58 12 -11 20 -30
20 -49 0 -51 37 -119 90 -167 66 -59 124 -87 184 -87 35 0 56 -6 80 -25 45
-34 103 -34 140 0 21 19 38 25 72 25 33 0 54 7 79 25 20 16 52 28 83 32 42 5
57 12 93 49 26 27 52 44 66 44 16 0 54 30 118 93 93 89 135 143 135 172 0 8
11 25 25 39 14 14 25 36 25 50 0 15 8 30 20 36 14 7 20 21 20 43 0 22 10 41
30 61 25 25 30 37 30 79 0 34 5 53 16 62 11 8 19 36 24 86 9 82 17 110 37 122
8 5 13 29 13 67 0 49 -3 61 -20 70 -11 6 -20 17 -20 24 0 7 9 21 20 31 15 14
20 31 20 70 0 36 5 57 16 66 30 24 44 68 44 133 0 48 4 67 15 74 9 4 18 26 21
48 10 70 14 83 36 103 18 17 20 27 15 71 -7 55 -1 80 17 80 7 0 47 -34 89 -75
73 -70 80 -75 122 -75 40 0 49 5 104 58 43 41 61 65 61 83 0 15 12 37 30 54
19 18 30 39 30 55 0 15 9 35 20 45 13 12 20 31 20 57 0 41 24 98 40 98 6 0 10
15 10 34 0 19 7 39 17 47 29 25 43 76 43 159 0 67 3 83 20 100 11 11 20 30 20
43 0 13 11 34 25 47 14 13 25 33 25 45 0 13 25 49 58 86 74 81 92 108 92 135
0 12 6 24 14 27 22 9 27 58 36 376 7 252 11 306 24 320 20 22 21 51 2 51 -21
0 -41 97 -27 133 14 35 32 34 59 -2 12 -16 34 -32 50 -36 16 -3 48 -26 72 -50
24 -25 51 -45 59 -45 19 0 60 -33 166 -133 49 -47 112 -97 140 -112 63 -31
114 -85 140 -145 10 -25 27 -53 37 -63 10 -10 18 -28 18 -41 0 -12 11 -33 25
-46 16 -15 25 -34 25 -54 0 -20 7 -36 20 -44 11 -6 25 -32 31 -56 6 -25 17
-47 25 -50 8 -3 14 -20 14 -42 0 -45 24 -97 59 -127 34 -28 41 -45 51 -135 4
-43 15 -80 24 -91 13 -14 16 -40 16 -125 0 -87 4 -114 20 -146 11 -21 24 -41
30 -45 5 -3 10 -38 10 -77 0 -53 4 -76 17 -90 11 -13 20 -46 24 -95 5 -53 14
-85 28 -104 17 -22 21 -43 21 -97 0 -63 3 -73 30 -103 24 -27 30 -43 30 -81 0
-35 6 -54 20 -68 11 -11 20 -31 20 -44 0 -12 11 -35 25 -50 14 -15 25 -39 25
-55 0 -17 10 -36 25 -49 14 -12 25 -28 26 -34 2 -71 10 -102 28 -119 12 -11
21 -31 21 -45 0 -16 10 -34 25 -46 17 -13 25 -29 25 -51 0 -21 7 -36 20 -45
11 -6 25 -32 31 -56 6 -25 17 -47 25 -50 8 -3 14 -17 14 -31 0 -16 12 -39 30
-57 21 -20 30 -39 30 -61 0 -21 7 -36 20 -44 10 -7 24 -30 29 -51 6 -22 30
-58 56 -85 27 -29 45 -57 45 -71 0 -12 9 -31 20 -41 11 -10 25 -36 32 -57 15
-51 109 -138 149 -138 17 0 32 -9 43 -25 11 -17 26 -25 46 -25 19 0 34 -7 42
-20 7 -11 21 -20 31 -20 21 0 93 -35 102 -50 4 -6 61 -10 143 -10 135 0 138 1
181 30 24 17 52 30 62 30 10 0 22 6 26 13 4 6 29 22 55 34 87 41 298 265 298
317 0 8 9 20 20 26 15 8 20 21 20 54 0 30 8 55 25 80 20 30 25 49 25 103 0 47
5 72 16 84 27 30 43 91 44 168 0 55 4 79 16 93 11 12 19 46 24 98 5 62 12 86
29 103 17 19 21 35 21 96 0 63 -3 77 -25 103 -18 21 -25 41 -25 72 0 29 -7 52
-21 70 -15 19 -21 41 -21 72 1 35 -5 51 -28 78 -17 18 -30 45 -30 58 0 14 -9
33 -20 43 -11 10 -22 33 -26 52 -3 18 -15 38 -25 44 -11 5 -19 17 -19 25 0 41
-234 294 -349 378 -42 31 -73 46 -94 46 -17 0 -38 7 -48 16 -39 35 -529 35
-555 -1 -7 -10 -28 -15 -61 -15 -42 0 -54 -5 -79 -30 -16 -16 -38 -30 -49 -30
-23 0 -105 -68 -185 -153 -68 -73 -85 -83 -115 -67 -31 16 -55 105 -55 198 0
56 -4 73 -17 80 -12 7 -18 30 -22 90 -5 61 -12 88 -29 111 -19 26 -22 43 -22
116 0 74 -4 92 -25 130 -21 35 -26 59 -30 136 -4 71 -9 97 -21 106 -11 8 -17
35 -21 92 -5 67 -10 86 -29 107 -19 19 -24 36 -24 74 0 38 -5 55 -25 76 -19
21 -25 38 -25 74 0 34 -5 52 -20 65 -11 10 -20 30 -20 45 0 16 -11 37 -30 55
-26 25 -30 36 -30 80 0 39 -5 56 -20 70 -11 10 -25 36 -31 57 -5 22 -17 42
-25 45 -9 3 -14 20 -14 52 0 49 -32 111 -68 130 -9 5 -26 32 -36 59 -13 33
-40 70 -78 107 -40 40 -59 67 -64 91 -4 21 -16 41 -30 51 -21 13 -24 23 -24
78 l0 63 40 7 c22 4 43 11 46 17 4 5 7 49 8 97 2 70 7 96 29 143 26 55 27 62
27 236 0 139 3 182 14 191 19 16 26 109 36 469 7 264 11 316 24 331 13 14 16
44 16 164 0 134 2 154 26 220 26 70 27 80 31 372 5 238 9 304 20 322 11 16 17
79 23 241 10 238 16 296 36 327 9 15 14 118 17 415 4 331 7 404 21 450 27 90
42 626 27 1013 -6 172 -16 329 -21 350 -6 20 -14 54 -20 75 -5 20 -10 143 -10
272 l0 235 -45 50 -45 50 0 111 c0 186 -37 263 -126 264 -32 0 -49 -7 -78 -32z
m84 -308 c0 -10 14 -44 30 -75 41 -77 58 -144 40 -155 -8 -5 -26 -2 -44 7 -21
11 -45 14 -84 10 l-54 -6 7 47 c7 56 41 158 61 190 12 19 18 21 30 11 8 -6 14
-19 14 -29z m-2632 -222 c5 -7 13 -40 16 -73 4 -33 15 -87 25 -120 50 -164 69
-247 75 -323 4 -65 13 -100 40 -160 19 -42 39 -88 44 -102 5 -14 42 -82 82
-150 74 -128 81 -145 129 -290 86 -257 94 -296 64 -306 -19 -6 -28 -11 -78
-44 -51 -34 -66 -24 -98 65 -15 44 -33 103 -38 130 -12 58 -64 231 -108 360
-17 49 -36 117 -42 150 -9 54 -82 238 -114 290 -7 11 -27 61 -44 112 -30 87
-31 98 -31 250 0 140 2 162 20 191 21 34 41 41 58 20z m2638 -93 c13 -20 17
-66 20 -272 4 -197 8 -251 20 -264 21 -24 21 -749 -1 -782 -12 -18 -15 -95
-20 -422 -8 -507 -20 -746 -40 -785 -12 -23 -15 -73 -15 -252 0 -177 -3 -228
-14 -244 -23 -32 -35 -160 -41 -439 -4 -199 -9 -263 -20 -275 -9 -10 -16 -66
-22 -190 -8 -141 -13 -183 -28 -210 -17 -32 -20 -67 -25 -371 -3 -222 -9 -341
-16 -350 -20 -25 -25 -61 -34 -208 -6 -114 -12 -147 -24 -157 -13 -9 -16 -33
-16 -126 0 -108 -1 -116 -20 -121 -28 -7 -66 35 -86 96 -9 27 -22 51 -30 54
-8 3 -14 19 -14 37 0 23 -9 41 -30 61 -17 16 -30 39 -30 53 0 13 -11 37 -25
54 -14 16 -25 40 -25 54 0 13 -9 29 -20 36 -13 8 -20 24 -20 43 -1 18 -12 43
-30 65 -26 30 -30 42 -30 94 0 40 5 65 16 77 32 35 43 92 44 218 0 99 3 128
16 142 12 14 17 62 24 256 10 272 17 338 36 354 11 9 14 48 14 173 0 160 0
161 30 211 25 41 30 61 30 114 0 45 5 70 16 82 12 13 18 50 24 138 5 92 12
129 29 161 19 37 21 56 21 239 0 188 1 201 24 252 20 45 25 76 29 186 4 95 10
138 21 155 11 17 17 61 21 153 6 128 17 186 39 214 7 9 13 118 16 325 5 274 8
316 24 351 14 31 20 78 26 208 7 131 12 173 24 186 14 15 16 58 16 305 0 254
2 291 17 317 22 36 56 38 79 4z m-2155 -1535 c4 -14 7 -41 8 -61 1 -20 10 -48
21 -62 11 -14 20 -35 20 -47 0 -12 11 -36 24 -53 14 -18 28 -45 31 -62 4 -16
14 -36 23 -42 9 -8 17 -35 20 -68 3 -41 10 -61 28 -78 19 -17 24 -33 24 -73 0
-37 6 -57 20 -74 21 -24 25 -36 34 -105 3 -22 12 -45 21 -51 8 -6 15 -23 15
-39 0 -17 10 -36 30 -53 20 -18 30 -36 30 -56 0 -16 7 -34 16 -41 10 -7 20
-35 25 -70 5 -36 15 -65 28 -79 15 -16 21 -36 21 -72 1 -40 6 -56 30 -84 24
-27 30 -44 30 -82 0 -33 5 -50 16 -56 10 -6 18 -31 23 -72 6 -49 13 -67 29
-78 15 -10 22 -25 22 -48 0 -18 6 -37 13 -41 21 -14 38 -40 43 -69 3 -15 14
-38 24 -52 13 -16 20 -40 20 -67 0 -31 7 -49 25 -69 20 -21 25 -38 25 -76 0
-38 5 -55 25 -76 18 -20 25 -38 25 -69 0 -27 7 -51 20 -68 11 -14 20 -36 20
-49 0 -14 13 -37 30 -53 21 -20 30 -38 30 -61 0 -21 7 -36 21 -45 14 -10 22
-30 28 -73 5 -36 15 -64 25 -71 9 -7 16 -25 16 -42 0 -19 10 -39 30 -58 26
-25 30 -36 30 -80 0 -38 5 -55 20 -68 11 -9 20 -28 20 -42 0 -14 11 -37 25
-51 15 -15 25 -36 25 -53 0 -17 11 -38 30 -56 26 -25 30 -36 30 -81 0 -36 5
-56 14 -61 24 -13 34 -53 23 -95 -10 -40 -80 -128 -102 -128 -7 0 -18 -7 -25
-15 -8 -9 -30 -15 -59 -15 -34 0 -49 -5 -58 -19 -8 -12 -33 -23 -77 -31 -49
-9 -69 -18 -83 -37 -67 -94 -99 -82 -87 33 6 59 5 66 -25 110 -27 41 -31 56
-31 112 0 47 -5 71 -17 84 -11 12 -18 41 -21 81 -4 70 -17 113 -38 121 -10 4
-14 23 -14 63 0 45 -5 62 -22 80 -17 18 -24 42 -29 99 -5 47 -14 83 -24 94
-11 13 -18 45 -21 111 -5 91 -16 130 -41 157 -9 9 -13 50 -13 128 0 102 -2
118 -21 144 -16 21 -24 51 -29 110 -5 54 -12 85 -23 93 -12 9 -16 39 -19 134
-4 112 -6 124 -31 160 -23 33 -27 50 -27 106 0 53 -5 74 -21 96 -15 21 -22 51
-28 131 -6 78 -12 106 -25 115 -11 8 -16 27 -16 59 0 36 -6 56 -27 83 -25 33
-28 46 -32 131 -2 72 -8 102 -21 121 -11 16 -20 53 -24 96 -4 47 -12 78 -26
97 -13 18 -20 43 -20 72 0 24 -6 51 -14 58 -32 33 -46 78 -46 152 0 63 -4 81
-24 111 -34 50 -40 84 -21 129 18 43 45 46 56 6z m1443 -3031 c6 -26 3 -56
-13 -117 -13 -50 -21 -112 -21 -162 0 -44 -1 -80 -3 -80 -2 0 -24 7 -50 16
-52 17 -59 37 -32 84 19 33 19 120 -1 179 -21 66 -8 101 40 101 19 0 38 5 41
11 12 18 30 3 39 -32z m-68 -488 c4 -23 17 -49 30 -62 14 -13 24 -34 24 -51 0
-17 9 -36 24 -49 13 -12 27 -36 31 -55 4 -23 21 -48 51 -76 35 -32 44 -47 44
-73 0 -22 7 -37 21 -46 14 -10 22 -30 28 -73 5 -36 15 -64 25 -71 9 -7 16 -26
16 -42 0 -20 9 -38 30 -56 19 -17 30 -37 30 -53 0 -14 9 -37 20 -51 13 -17 20
-41 20 -72 0 -60 16 -117 35 -125 11 -4 15 -21 15 -56 0 -35 6 -59 20 -78 29
-39 43 -147 38 -287 -5 -138 -23 -191 -60 -179 -11 3 -52 39 -91 80 -44 46
-78 74 -92 74 -12 0 -57 32 -105 75 -46 41 -93 75 -104 75 -11 0 -38 19 -60
43 -23 24 -62 50 -89 61 -53 20 -147 116 -147 151 0 11 -20 40 -44 64 -39 39
-46 51 -52 100 -5 40 -14 62 -30 78 -14 13 -24 33 -24 50 0 21 -13 41 -45 73
-31 30 -45 53 -45 70 0 16 -12 37 -30 55 -25 24 -30 36 -30 77 0 33 -7 58 -20
76 -15 21 -21 51 -26 135 l-7 107 137 0 c129 0 139 1 169 24 18 13 46 27 64
31 17 3 34 12 36 19 3 8 22 17 41 20 22 4 42 16 52 31 13 20 25 25 55 25 37 0
39 -1 45 -39z m577 -482 c6 -46 -12 -117 -43 -167 -31 -51 -57 -41 -97 36 -41
79 -43 112 -8 112 33 0 86 22 104 43 23 28 38 19 44 -24z m-849 -668 c50 -49
123 -109 162 -134 39 -26 78 -57 87 -70 15 -23 14 -25 -28 -61 -25 -20 -57
-53 -72 -73 -26 -34 -28 -44 -29 -132 -1 -53 -6 -225 -12 -382 -11 -286 -11
-287 -40 -352 -16 -35 -54 -98 -84 -138 -80 -108 -155 -266 -169 -359 -6 -41
-24 -111 -41 -155 -16 -44 -41 -111 -54 -148 -46 -130 -113 -239 -154 -252
-13 -4 -45 8 -94 34 -99 55 -115 54 -185 -17 -56 -56 -81 -105 -117 -227 -6
-22 -21 -67 -33 -100 -11 -33 -23 -72 -26 -87 -3 -16 -12 -28 -19 -28 -15 0
-21 37 -31 215 -5 75 -13 114 -31 154 -13 29 -24 59 -24 67 0 7 20 30 45 51
63 53 94 100 114 180 10 37 23 88 30 113 39 152 53 212 61 270 10 69 27 128
97 340 24 74 50 173 58 220 16 106 52 254 72 300 46 102 125 340 184 548 10
34 30 58 101 123 83 76 128 137 128 174 0 8 3 15 6 15 4 0 48 -40 98 -89z
m927 20 c19 -22 44 -53 56 -69 27 -35 126 -250 158 -342 12 -36 38 -103 58
-150 74 -179 160 -466 178 -595 6 -38 16 -92 24 -120 8 -27 19 -79 25 -115 6
-36 18 -94 27 -130 8 -36 19 -87 25 -115 5 -27 17 -77 28 -110 10 -33 24 -93
30 -133 12 -82 26 -115 71 -167 57 -65 87 -80 151 -77 51 3 58 1 58 -15 0 -10
-6 -27 -14 -38 -20 -30 -66 -151 -66 -175 0 -21 -96 -278 -110 -293 -10 -11
-53 74 -77 153 -28 90 -78 287 -142 560 -11 47 -23 117 -27 155 -10 107 -68
327 -104 392 -17 32 -49 100 -71 152 -64 149 -164 343 -214 414 -44 64 -124
144 -175 175 -42 26 -90 75 -90 92 0 9 25 40 56 70 96 95 99 104 99 327 0 106
3 193 6 193 4 0 22 -18 40 -39z m1801 -1856 c40 -14 93 -40 118 -58 77 -55
199 -179 253 -257 65 -95 144 -259 181 -375 16 -49 37 -112 48 -139 10 -27 18
-65 18 -85 0 -39 -29 -170 -65 -291 -13 -41 -26 -102 -29 -135 -4 -33 -12 -80
-20 -105 -7 -25 -19 -73 -25 -107 -15 -80 -72 -221 -116 -287 -56 -84 -186
-192 -255 -211 -20 -6 -15 3 29 46 29 30 70 84 92 120 51 88 189 374 189 393
0 8 12 46 26 83 42 110 43 295 5 473 -6 25 -15 93 -21 151 -17 180 -60 280
-195 464 -138 186 -216 240 -380 260 -27 3 -61 10 -75 14 -14 5 -51 17 -83 26
-109 32 -49 56 125 50 81 -3 125 -11 180 -30z m-297 -150 c18 -8 36 -19 40
-25 3 -6 49 -10 104 -10 82 0 101 -3 115 -18 9 -11 34 -24 55 -30 30 -10 40
-18 44 -40 3 -15 37 -63 76 -107 45 -50 71 -88 71 -103 0 -12 11 -33 25 -45
16 -13 28 -36 30 -57 3 -19 12 -40 20 -46 12 -9 17 -41 21 -150 5 -119 9 -146
30 -190 22 -47 24 -63 24 -203 0 -144 -1 -153 -25 -191 -15 -24 -25 -54 -25
-78 0 -25 -9 -50 -25 -72 -14 -19 -23 -40 -21 -47 3 -7 -8 -28 -24 -47 -19
-21 -30 -45 -30 -64 0 -21 -8 -35 -25 -46 -17 -11 -25 -26 -25 -46 0 -19 -7
-34 -20 -42 -13 -9 -20 -24 -20 -44 0 -32 -32 -64 -63 -64 -8 0 -26 -9 -40
-20 -14 -11 -34 -20 -46 -20 -11 0 -36 -13 -54 -30 -48 -42 -103 -42 -150 0
-19 17 -40 30 -47 30 -37 0 -278 235 -287 281 -3 15 -18 40 -34 55 -16 16 -29
38 -29 52 0 13 -11 37 -25 54 -18 21 -25 41 -25 72 0 28 -7 52 -20 69 -11 14
-20 35 -20 47 0 12 -13 35 -30 50 -20 19 -30 38 -30 57 0 16 -9 36 -19 45 -11
9 -25 35 -31 56 -5 22 -17 45 -25 52 -10 8 -15 31 -15 64 -1 43 -5 55 -30 80
-17 17 -30 40 -30 54 0 14 -11 35 -25 48 -14 13 -25 32 -25 44 0 12 11 31 25
44 15 14 25 34 25 50 0 17 11 39 30 58 28 28 30 34 30 106 0 65 3 79 19 89 11
7 25 29 31 50 16 48 159 193 192 193 12 0 32 9 44 21 41 39 209 47 289 14z
m-3878 -59 c16 -14 41 -28 55 -31 14 -4 69 -49 122 -100 54 -52 123 -109 154
-127 l57 -34 3 -264 c2 -263 2 -264 -22 -300 -13 -20 -26 -49 -30 -66 -4 -16
-27 -49 -51 -73 -42 -41 -45 -47 -45 -97 0 -30 -5 -54 -10 -54 -22 0 -32 -60
-40 -223 -6 -133 -11 -172 -24 -186 -9 -10 -16 -28 -16 -41 0 -32 -28 -60 -59
-60 -19 0 -41 -14 -71 -45 -30 -31 -53 -45 -70 -45 -16 0 -37 -12 -55 -30 -17
-18 -39 -30 -54 -30 -13 0 -33 -8 -44 -18 -16 -14 -40 -17 -152 -17 -131 0
-133 0 -160 27 -21 21 -28 39 -32 87 -4 46 -11 65 -29 82 -21 19 -24 32 -24
91 0 54 -5 75 -21 97 -17 23 -22 51 -29 182 -7 118 -13 157 -25 165 -19 14
-19 33 0 54 12 13 17 69 25 282 9 253 17 318 40 318 5 0 10 24 10 54 0 45 5
60 25 82 18 20 25 38 25 69 0 28 7 51 21 69 11 14 25 41 30 60 14 49 45 84 83
91 18 4 46 17 62 30 28 23 36 24 176 25 141 0 148 -1 175 -24z m485 -1054
c-12 -48 -22 -95 -22 -105 0 -27 -56 -182 -86 -237 -43 -79 -54 -68 -54 58 1
79 5 120 19 157 11 28 26 70 36 95 9 25 35 69 57 99 37 49 41 52 56 37 15 -15
15 -23 -6 -104z"/>
<path d="M3774 5361 c-9 -9 -3 -208 7 -243 5 -21 20 -50 32 -64 19 -22 31 -26
85 -27 51 -2 65 1 73 16 6 9 19 17 30 17 32 0 69 30 69 57 0 13 10 37 22 54
23 31 44 166 28 182 -8 9 -338 16 -346 8z"/>
</g>
</svg>
