<?xml version="1.0" standalone="no"?>
<!DOCTYPE svg PUBLIC "-//W3C//DTD SVG 20010904//EN"
 "http://www.w3.org/TR/2001/REC-SVG-20010904/DTD/svg10.dtd">
<svg version="1.0" xmlns="http://www.w3.org/2000/svg"
 width="900.000000pt" height="1038.000000pt" viewBox="0 0 900.000000 1038.000000"
 preserveAspectRatio="xMidYMid meet">
<metadata>
Created by potrace 1.10, written by Peter Selinger 2001-2011
</metadata>
<g transform="translate(0.000000,1038.000000) scale(0.100000,-0.100000)"
fill="#000000" stroke="none">
<path d="M7381 9915 c-35 -18 -68 -38 -74 -44 -6 -6 -30 -11 -53 -11 -25 0
-47 -6 -54 -15 -7 -8 -23 -15 -36 -15 -13 0 -27 -6 -31 -13 -11 -17 -58 -37
-87 -37 -13 0 -35 -9 -49 -20 -15 -12 -40 -20 -65 -20 -22 0 -45 -6 -51 -13
-7 -9 -45 -16 -108 -20 -58 -3 -111 -12 -130 -22 -17 -9 -67 -20 -110 -25 -43
-5 -95 -16 -115 -24 -30 -13 -81 -16 -255 -16 -170 -1 -223 -4 -243 -15 -38
-22 -1266 -21 -1294 0 -15 11 -49 15 -131 15 -78 0 -116 4 -131 14 -13 9 -79
18 -204 26 -122 8 -196 17 -220 27 -22 10 -78 17 -152 21 -83 3 -121 9 -129
18 -8 10 -35 14 -87 14 -54 0 -80 4 -92 15 -10 9 -50 20 -91 24 -41 5 -105 17
-144 26 -95 23 -687 28 -749 6 -56 -20 -106 -77 -106 -121 0 -20 -6 -44 -14
-55 -23 -34 -27 -74 -35 -362 -7 -227 -11 -285 -25 -310 -12 -25 -16 -61 -16
-161 0 -103 -3 -132 -15 -142 -11 -9 -15 -33 -15 -85 0 -59 -5 -81 -25 -116
-16 -29 -25 -60 -25 -89 0 -28 -8 -56 -20 -75 -16 -25 -20 -47 -20 -126 0 -74
-4 -100 -15 -109 -10 -9 -15 -31 -15 -72 0 -48 -5 -66 -25 -92 -14 -18 -25
-46 -25 -63 0 -17 -9 -42 -20 -56 -12 -15 -20 -40 -20 -65 0 -23 -6 -45 -15
-52 -10 -8 -15 -31 -15 -65 0 -38 -7 -65 -25 -96 -16 -29 -25 -59 -25 -90 0
-31 -7 -55 -20 -72 -13 -17 -20 -40 -20 -70 0 -31 -5 -47 -15 -51 -10 -3 -15
-19 -15 -44 0 -25 -9 -50 -25 -72 -15 -20 -25 -47 -25 -68 0 -19 -9 -45 -20
-59 -16 -21 -20 -41 -20 -103 0 -54 -4 -81 -14 -89 -10 -8 -15 -46 -18 -129
-3 -92 -9 -125 -25 -157 -13 -26 -22 -67 -25 -119 -4 -59 -9 -81 -22 -88 -12
-7 -16 -24 -16 -77 0 -52 -4 -70 -15 -75 -11 -4 -15 -21 -15 -62 0 -41 -6 -67
-22 -93 -14 -21 -25 -61 -29 -99 -4 -36 -13 -70 -23 -81 -12 -13 -16 -37 -16
-91 0 -50 -5 -78 -15 -90 -9 -10 -16 -47 -19 -110 -3 -64 -11 -110 -24 -140
-14 -33 -21 -76 -24 -157 -3 -87 -8 -117 -21 -131 -14 -15 -17 -40 -17 -132 0
-86 -4 -117 -15 -130 -10 -11 -16 -47 -19 -112 -3 -66 -11 -109 -24 -139 -12
-25 -22 -75 -25 -117 -3 -48 -10 -79 -21 -91 -11 -12 -16 -36 -16 -76 0 -39
-5 -64 -16 -76 -12 -14 -16 -56 -21 -218 l-6 -201 121 -124 c67 -68 122 -129
122 -135 0 -13 108 -129 370 -396 308 -313 360 -368 360 -382 0 -6 42 -54 93
-106 196 -201 208 -215 233 -266 4 -8 36 -44 70 -79 35 -36 70 -80 79 -98 24
-51 108 -137 158 -162 24 -12 77 -54 117 -92 40 -39 78 -70 84 -70 30 0 526
-494 562 -560 25 -46 140 -160 162 -160 9 0 46 -27 81 -60 36 -33 72 -60 81
-60 10 0 28 -8 41 -18 13 -10 38 -24 55 -31 17 -7 41 -25 53 -42 13 -17 31
-29 44 -29 13 0 48 -24 86 -60 36 -33 72 -60 81 -60 10 0 29 -9 43 -20 14 -11
31 -20 38 -20 6 0 27 -11 45 -25 18 -14 41 -25 52 -25 11 0 22 -7 26 -15 3 -8
14 -15 24 -15 10 0 50 -27 88 -60 41 -35 78 -60 92 -60 12 0 25 -6 28 -14 3
-8 25 -21 49 -30 24 -10 49 -24 55 -32 8 -8 30 -14 57 -14 30 0 45 -5 49 -15
4 -8 16 -15 28 -15 11 0 41 -19 66 -41 25 -22 57 -43 72 -46 15 -3 33 -12 39
-19 6 -8 28 -14 49 -14 21 0 43 -6 49 -14 16 -19 59 -26 171 -27 120 -1 130 3
130 50 -1 65 -60 111 -145 111 -40 0 -57 4 -61 15 -4 10 -20 15 -49 15 -25 0
-52 7 -66 18 -13 10 -38 24 -56 31 -18 7 -38 19 -44 27 -6 8 -22 14 -34 14
-13 0 -25 7 -29 15 -3 8 -16 15 -29 15 -13 0 -38 11 -57 25 -19 14 -39 25 -46
25 -6 0 -23 9 -37 20 -14 11 -34 20 -45 20 -11 0 -22 6 -25 14 -3 7 -19 16
-36 19 -17 4 -51 25 -75 47 -24 22 -52 40 -64 40 -11 0 -31 12 -44 27 -27 32
-61 53 -83 53 -8 0 -19 9 -25 20 -7 13 -21 20 -39 20 -16 0 -34 7 -41 15 -7 8
-20 15 -30 15 -10 0 -40 20 -68 45 -27 25 -59 45 -71 45 -11 0 -30 13 -42 30
-13 16 -42 37 -65 46 -23 9 -55 29 -70 45 -15 16 -35 29 -45 29 -9 0 -39 20
-67 45 -27 25 -57 45 -65 45 -22 0 -140 113 -162 156 -11 22 -77 98 -147 169
-195 200 -195 200 -214 281 -13 53 -26 82 -50 108 -18 20 -38 36 -44 36 -24 0
-71 39 -187 157 -68 68 -123 130 -123 139 0 9 -27 45 -60 81 -33 36 -60 74
-60 84 0 9 -13 28 -30 42 -16 14 -37 45 -46 69 -10 23 -30 53 -46 66 -15 13
-28 32 -28 43 0 11 -11 35 -25 53 -14 18 -25 40 -25 48 0 8 -9 23 -20 33 -11
10 -20 28 -20 40 0 12 -12 32 -26 46 -14 13 -37 45 -50 71 -13 26 -28 49 -34
53 -5 3 -10 16 -10 29 0 12 -15 37 -35 56 -19 19 -35 39 -35 46 0 6 -11 28
-25 48 -14 20 -25 44 -25 52 0 9 -18 36 -40 61 -22 25 -40 53 -40 63 0 9 -9
25 -20 35 -11 10 -20 28 -20 40 0 11 -15 36 -34 54 -18 18 -39 50 -46 71 -7
21 -19 41 -26 44 -8 3 -14 16 -14 29 0 13 -15 37 -35 57 -19 19 -35 39 -35 46
0 6 -11 28 -25 48 -14 20 -25 45 -25 54 -1 9 -8 26 -18 37 -25 29 -98 85 -111
85 -6 0 -20 9 -31 20 -26 26 -55 26 -77 0 -14 -16 -30 -20 -80 -20 -45 0 -64
-4 -70 -15 -5 -9 -36 -20 -73 -26 -36 -6 -79 -19 -97 -29 -17 -10 -34 -16 -37
-13 -3 4 -6 45 -6 91 0 62 4 90 15 102 10 11 16 44 19 93 3 51 11 88 24 114
11 21 23 65 26 97 3 39 10 63 20 68 13 7 16 27 16 90 0 58 4 86 15 98 11 12
16 50 20 135 4 80 11 128 22 149 12 23 19 75 24 195 6 125 12 167 23 180 12
14 16 41 16 119 0 81 3 103 16 110 11 6 17 31 21 88 3 46 13 93 24 114 9 19
20 62 23 95 3 37 11 64 21 71 11 8 15 29 15 74 0 45 4 66 15 74 10 7 18 34 22
71 3 33 14 76 23 95 9 19 20 70 23 113 4 51 11 85 21 96 13 14 16 42 16 132 0
90 4 120 16 138 10 14 19 52 22 95 2 39 13 89 22 111 10 22 21 64 24 94 3 30
12 61 21 71 8 9 15 25 15 35 0 10 8 27 17 37 10 12 20 45 24 84 4 38 13 72 23
83 10 11 18 41 20 80 3 38 10 69 20 80 9 10 16 35 16 55 0 23 8 48 20 63 11
14 20 41 20 60 0 21 10 47 24 66 13 18 24 47 24 66 0 18 8 41 16 50 11 12 16
37 16 76 0 41 5 64 17 77 11 12 19 45 23 96 4 47 15 95 28 124 16 34 22 66 22
116 0 53 4 71 15 76 11 4 15 21 15 67 0 44 5 68 16 81 13 13 19 49 24 155 5
90 14 154 25 183 13 35 18 91 22 255 4 163 9 212 19 218 11 6 14 40 14 147 l0
139 168 -5 c305 -8 350 -11 374 -28 18 -13 50 -16 154 -16 105 0 134 -3 144
-15 9 -11 33 -15 86 -15 53 0 84 -5 111 -19 26 -14 75 -22 159 -29 74 -6 132
-16 152 -26 24 -12 62 -16 174 -16 110 -1 147 -4 162 -15 15 -11 50 -15 138
-15 93 0 127 -4 167 -20 28 -11 98 -24 157 -30 59 -5 113 -15 122 -22 23 -19
737 -19 771 1 16 9 88 16 215 23 105 5 209 14 231 19 92 24 140 28 326 28 162
1 199 4 209 16 9 11 33 15 88 15 55 0 80 4 93 16 11 10 51 20 106 26 55 6 100
17 119 29 17 10 48 19 68 19 23 0 39 5 42 15 4 8 18 15 34 15 15 0 35 8 44 19
9 10 35 21 58 24 23 3 54 15 69 26 17 13 43 21 67 21 22 0 45 6 51 14 15 18
139 30 156 16 10 -8 12 -26 8 -60 -4 -36 -1 -59 12 -87 38 -79 43 -345 8 -438
-8 -22 -18 -87 -23 -144 -6 -80 -11 -106 -24 -113 -11 -6 -16 -23 -16 -58 0
-34 -5 -52 -16 -58 -11 -6 -16 -26 -18 -68 -2 -39 -10 -71 -24 -94 -12 -19
-22 -49 -22 -66 0 -17 -9 -43 -20 -57 -11 -14 -20 -35 -20 -46 0 -12 -7 -24
-15 -27 -8 -4 -15 -14 -15 -24 0 -9 -11 -34 -25 -54 -14 -20 -25 -43 -25 -50
0 -7 -9 -25 -20 -39 -11 -14 -20 -35 -20 -46 0 -12 -7 -24 -15 -27 -8 -4 -15
-14 -15 -24 0 -9 -11 -34 -25 -54 -14 -20 -25 -43 -25 -50 0 -7 -9 -25 -20
-39 -11 -14 -20 -35 -20 -46 0 -12 -6 -24 -14 -27 -8 -3 -18 -19 -21 -34 -4
-16 -14 -39 -24 -52 -12 -15 -20 -46 -23 -87 -3 -44 -10 -67 -21 -76 -12 -8
-17 -27 -17 -58 0 -31 -5 -49 -16 -55 -9 -5 -18 -28 -21 -53 -3 -24 -13 -57
-23 -74 -11 -18 -20 -61 -23 -108 -4 -51 -11 -85 -21 -96 -9 -10 -16 -35 -16
-55 0 -23 -8 -48 -20 -63 -11 -14 -20 -40 -20 -58 0 -18 -9 -44 -21 -59 -14
-18 -21 -45 -24 -87 -2 -37 -10 -68 -19 -78 -12 -13 -16 -39 -16 -96 0 -59 -4
-83 -17 -97 -12 -13 -18 -45 -22 -116 -4 -70 -11 -106 -24 -126 -10 -15 -20
-48 -23 -74 -2 -27 -10 -50 -19 -55 -9 -5 -15 -23 -15 -48 0 -26 -7 -50 -20
-66 -11 -14 -20 -40 -20 -58 0 -18 -10 -45 -22 -60 -16 -21 -23 -46 -26 -92
-3 -37 -10 -67 -18 -74 -10 -8 -14 -39 -14 -112 0 -80 -3 -104 -17 -119 -11
-12 -18 -45 -23 -101 -5 -55 -14 -95 -28 -122 -17 -30 -22 -57 -22 -113 0 -55
-4 -74 -15 -78 -12 -5 -15 -24 -15 -87 0 -62 -4 -85 -17 -99 -12 -14 -19 -46
-24 -116 -4 -59 -15 -120 -28 -154 -16 -45 -21 -80 -21 -158 0 -80 -3 -102
-15 -106 -10 -4 -15 -20 -15 -46 0 -25 -8 -50 -20 -65 -11 -14 -20 -40 -20
-58 0 -18 -11 -49 -25 -69 -16 -23 -25 -51 -25 -75 0 -22 -6 -44 -15 -51 -11
-9 -15 -35 -15 -104 0 -68 -4 -97 -16 -114 -9 -13 -20 -53 -24 -89 -5 -41 -16
-77 -29 -94 -13 -17 -21 -43 -21 -68 0 -25 -5 -41 -15 -45 -11 -4 -15 -21 -15
-67 0 -43 -5 -68 -16 -80 -9 -10 -19 -47 -24 -83 -4 -36 -17 -81 -29 -99 -15
-24 -21 -51 -21 -90 0 -39 -4 -56 -15 -61 -11 -4 -15 -20 -15 -55 0 -36 -5
-53 -16 -59 -14 -8 -18 -40 -26 -212 -7 -167 -12 -210 -28 -246 -15 -32 -20
-65 -20 -132 0 -67 -4 -93 -15 -102 -10 -9 -15 -32 -15 -76 0 -45 -4 -65 -15
-71 -14 -8 -38 -129 -28 -146 9 -15 -18 -149 -32 -164 -10 -9 -15 -35 -15 -72
0 -40 -5 -63 -15 -71 -11 -9 -15 -33 -15 -86 0 -55 -5 -81 -20 -107 -13 -21
-23 -65 -29 -120 -5 -48 -15 -94 -22 -103 -11 -13 -15 -66 -17 -215 -3 -156
-6 -200 -18 -210 -20 -16 -19 -142 1 -159 11 -9 15 -33 15 -88 0 -57 5 -82 20
-107 11 -17 22 -49 24 -69 3 -20 14 -48 26 -63 11 -14 20 -36 20 -50 0 -18 7
-25 30 -29 16 -4 35 -13 41 -20 16 -20 73 -17 92 4 46 51 41 121 -13 161 -25
18 -30 29 -30 63 0 25 -7 49 -17 60 -41 46 -41 659 0 719 12 16 17 45 17 95 0
51 4 75 15 84 10 9 15 31 15 72 0 45 5 66 20 85 13 17 20 41 20 68 0 44 22
109 40 120 5 3 10 41 10 84 0 58 4 82 15 91 12 10 15 36 15 113 0 80 3 104 17
119 11 13 19 48 24 116 4 53 17 123 28 154 17 47 21 82 21 190 1 101 4 138 15
152 11 14 15 47 15 115 0 73 4 98 16 112 9 10 20 40 25 66 5 26 18 60 29 75
15 20 20 43 20 88 0 45 4 62 15 66 11 5 15 22 15 69 0 35 5 67 11 70 16 11 31
55 35 110 2 29 12 61 24 77 12 16 20 43 20 66 0 23 6 45 15 52 11 10 15 36 15
111 0 55 4 101 10 104 18 11 40 76 40 120 0 27 7 51 20 68 13 16 20 40 20 66
0 28 5 44 15 47 10 4 15 20 15 46 0 24 9 55 21 74 15 25 22 60 28 132 5 66 13
107 24 123 13 18 17 46 17 120 0 74 4 100 15 109 11 9 15 32 15 81 0 49 6 79
20 108 15 27 24 71 30 147 6 81 12 109 24 116 13 7 16 27 16 92 0 62 4 87 15
96 11 9 15 32 15 82 0 53 6 80 25 118 15 30 25 66 25 93 0 29 7 53 20 70 12
15 20 40 20 65 0 23 6 45 15 52 10 8 15 31 15 66 0 40 6 65 23 92 13 20 26 57
30 81 3 25 12 48 21 53 12 7 16 25 16 72 0 44 5 67 15 76 11 9 15 35 15 104 0
75 4 98 22 131 12 22 25 69 29 104 4 41 13 69 23 76 10 8 16 27 16 52 0 24 6
46 15 53 9 7 15 29 15 51 0 24 9 52 25 75 20 30 25 49 25 103 0 49 5 74 20 96
12 18 20 47 20 71 0 28 5 44 15 48 10 3 15 19 15 46 0 26 8 51 22 71 15 20 24
51 29 96 4 43 12 71 23 78 9 7 16 24 16 38 0 13 7 27 15 31 10 3 15 19 15 46
0 29 8 51 25 74 14 18 25 40 25 50 0 9 9 24 20 33 11 10 20 28 20 41 0 14 13
36 30 52 17 16 40 49 51 74 11 25 24 46 29 46 6 0 10 13 10 29 0 16 6 31 14
34 8 3 17 21 21 39 4 18 15 42 25 53 9 11 20 40 23 64 3 25 12 48 21 53 11 6
16 24 16 58 0 34 5 52 16 58 11 6 17 28 20 70 2 34 12 76 23 94 12 20 21 62
24 108 3 41 12 89 21 105 23 44 24 619 1 653 -9 12 -18 45 -21 74 -11 107 -38
145 -123 171 -82 26 -145 21 -220 -18z m-5870 -6050 c38 -41 76 -56 139 -57
44 -1 65 4 88 21 34 24 59 26 99 9 39 -18 103 -88 103 -114 0 -11 9 -29 20
-39 11 -10 20 -26 20 -36 0 -9 18 -36 40 -59 22 -23 40 -50 40 -59 0 -10 18
-38 41 -62 22 -24 43 -56 46 -71 3 -15 12 -33 19 -39 8 -6 14 -20 14 -29 0
-10 20 -40 45 -67 25 -26 45 -56 45 -65 0 -10 16 -33 35 -52 19 -20 35 -42 35
-50 0 -8 11 -28 25 -44 14 -17 25 -39 25 -49 0 -11 9 -28 20 -38 11 -10 20
-23 20 -30 0 -6 20 -32 45 -57 51 -52 59 -81 21 -76 -15 2 -152 134 -410 397
-212 216 -386 398 -386 404 0 32 -142 164 -215 198 -30 14 -43 45 -31 75 8 21
31 17 57 -11z m1057 -1091 c12 -8 32 -34 43 -57 12 -23 29 -53 39 -67 93 -137
158 -237 175 -264 11 -18 34 -50 51 -72 63 -80 96 -136 87 -145 -9 -9 -94 75
-170 167 -18 21 -60 72 -95 112 -35 40 -73 87 -86 104 -12 18 -47 58 -77 89
-64 66 -70 96 -27 128 33 25 32 25 60 5z"/>
<path d="M37 3 c18 -2 50 -2 70 0 21 2 7 4 -32 4 -38 0 -55 -2 -38 -4z"/>
<path d="M2397 3 c1212 -2 3194 -2 4405 0 1212 1 221 2 -2202 2 -2423 0 -3414
-1 -2203 -2z"/>
</g>
</svg>
